<svg width="24" height="24" viewBox="0 0 24 24" fill="#ffffff" xmlns="http://www.w3.org/2000/svg">
<g clip-path="url(#clip0_4418_6759)">
<path d="M18.3601 22.7504H5.59011C4.07011 22.7504 2.68011 21.9804 1.88011 20.6804C1.08011 19.3804 1.01011 17.8004 1.69011 16.4304L3.41011 12.9804C3.97011 11.8604 4.87011 11.1604 5.88011 11.0504C6.89011 10.9404 7.92011 11.4404 8.70011 12.4104L8.92011 12.6904C9.36011 13.2304 9.87011 13.5204 10.3701 13.4704C10.8701 13.4304 11.3301 13.0704 11.6701 12.4604L13.5601 9.05042C14.3401 7.64042 15.3801 6.91041 16.5101 6.96041C17.6301 7.02041 18.5901 7.86041 19.2301 9.34042L22.3601 16.6504C22.9401 18.0004 22.8001 19.5404 21.9901 20.7704C21.1901 22.0204 19.8301 22.7504 18.3601 22.7504ZM6.16011 12.5504C6.12011 12.5504 6.08011 12.5504 6.04011 12.5604C5.54011 12.6104 5.08011 13.0104 4.75011 13.6604L3.03011 17.1104C2.58011 18.0004 2.63011 19.0504 3.15011 19.9004C3.67011 20.7504 4.59011 21.2604 5.59011 21.2604H18.3501C19.3301 21.2604 20.2001 20.7904 20.7401 19.9704C21.2801 19.1504 21.3701 18.1704 20.9801 17.2704L17.8501 9.96041C17.4701 9.06041 16.9401 8.51041 16.4301 8.49041C15.9601 8.46041 15.3501 8.96042 14.8701 9.81042L12.9801 13.2204C12.4001 14.2604 11.4901 14.9104 10.5001 15.0004C9.51011 15.0804 8.50011 14.6004 7.75011 13.6604L7.53011 13.3804C7.11011 12.8304 6.63011 12.5504 6.16011 12.5504Z"></path>
<path d="M6.96997 8.75C4.90997 8.75 3.21997 7.07 3.21997 5C3.21997 2.93 4.89997 1.25 6.96997 1.25C9.03997 1.25 10.72 2.93 10.72 5C10.72 7.07 9.03997 8.75 6.96997 8.75ZM6.96997 2.75C5.72997 2.75 4.71997 3.76 4.71997 5C4.71997 6.24 5.72997 7.25 6.96997 7.25C8.20997 7.25 9.21997 6.24 9.21997 5C9.21997 3.76 8.20997 2.75 6.96997 2.75Z"></path>
</g>
<defs>
<clipPath id="clip0_4418_6759">
<rect width="24" height="24" fill="white"></rect>
</clipPath>
</defs>
</svg>